HIERARCHY
ROOT Hips
{
	OFFSET 0.000000 0.000000 0.000000 
	CHANNELS 6 Xposition Yposition Zposition Zrotation Yrotation Xrotation
	JOINT LeftUpLeg
	{
		OFFSET 1.363060 -1.794630 0.839290 
		CHANNELS 3 Zrotation Yrotation Xrotation
		JOINT LeftLeg
		{
			OFFSET 2.448110 -6.726130 0.000000 
			CHANNELS 3 Zrotation Yrotation Xrotation
			JOINT LeftFoot
			{
				OFFSET 2.562200 -7.039590 0.000000 
				CHANNELS 3 Zrotation Yrotation Xrotation
				JOINT LeftToeBase
				{
					OFFSET 0.157640 -0.433110 2.322550 
					CHANNELS 3 Zrotation Yrotation Xrotation
					End Site
					{
						OFFSET 0.000000 0.000000 0.000000 
					}
				}
			}
		}
	}
	JOINT RightUpLeg
	{
		OFFSET -1.305520 -1.794630 0.839290 
		CHANNELS 3 Zrotation Yrotation Xrotation
		JOINT RightLeg
		{
			OFFSET -2.542530 -6.985550 0.000000 
			CHANNELS 3 Zrotation Yrotation Xrotation
			JOINT RightFoot
			{
				OFFSET -2.568260 -7.056230 0.000000 
				CHANNELS 3 Zrotation Yrotation Xrotation
				JOINT RightToeBase
				{
					OFFSET -0.164730 -0.452590 2.363150 
					CHANNELS 3 Zrotation Yrotation Xrotation
					End Site
					{
						OFFSET 0.000000 0.000000 0.000000 
					}
				}
			}
		}
	}
	JOINT Spine
	{
		OFFSET 0.028270 2.035590 -0.193380 
		CHANNELS 3 Zrotation Yrotation Xrotation
		JOINT Spine1
		{
			OFFSET 0.056720 2.048850 -0.042750 
			CHANNELS 3 Zrotation Yrotation Xrotation
			JOINT Neck1
			{
				OFFSET -0.054170 1.746240 0.172020 
				CHANNELS 3 Zrotation Yrotation Xrotation
				JOINT Head
				{
					OFFSET 0.104070 1.761360 -0.123970 
					CHANNELS 3 Zrotation Yrotation Xrotation
					End Site
					{
						OFFSET 0.000000 0.000000 0.000000 
					}
				}
			}
			JOINT LeftArm
			{
				OFFSET 3.362410 1.200890 -0.311210 
				CHANNELS 3 Zrotation Yrotation Xrotation
				JOINT LeftForeArm
				{
					OFFSET 4.983000 -0.000000 -0.000000 
					CHANNELS 3 Zrotation Yrotation Xrotation
					JOINT LeftHand
					{
						OFFSET 3.483560 -0.000000 -0.000000 
						CHANNELS 3 Zrotation Yrotation Xrotation
						JOINT LeftHandIndex1
						{
							OFFSET 0.715260 -0.000000 -0.000000 
							CHANNELS 3 Zrotation Yrotation Xrotation
							End Site
							{
								OFFSET 0.000000 0.000000 0.000000 
							}
						}
					}
				}
			}
			JOINT RightArm
			{
				OFFSET -3.136600 1.374050 -0.404650 
				CHANNELS 3 Zrotation Yrotation Xrotation
				JOINT RightForeArm
				{
					OFFSET -5.241900 -0.000000 -0.000000 
					CHANNELS 3 Zrotation Yrotation Xrotation
					JOINT RightHand
					{
						OFFSET -3.444170 -0.000000 -0.000000 
						CHANNELS 3 Zrotation Yrotation Xrotation
						JOINT RightHandIndex1
						{
							OFFSET -0.622530 -0.000000 -0.000000 
							CHANNELS 3 Zrotation Yrotation Xrotation
							End Site
							{
								OFFSET 0.000000 0.000000 0.000000 
							}
						}
					}
				}
			}
		}
	}
}
MOTION
Frames: 13
Frame Time: 0.041667
11.695705 18.100507 -11.640423 -0.513543 2.912985 24.545843 -0.701178 -46.281233 -22.462275 -2.467904 5.766475 14.471631 -5.018496 25.717779 -19.032158 0.305800 3.555400 9.829000 19.562735 41.172775 -21.480417 2.582764 -7.019879 18.134736 2.474631 -32.540904 -39.660154 -3.587800 -11.590700 34.298900 1.446848 -0.321017 -3.912606 2.797352 0.191284 -10.972907 7.491851 1.400854 16.304978 3.501000 0.744800 8.096200 -29.810241 -49.610121 -6.084335 46.345097 -42.054584 -22.124301 -0.510081 0.610122 56.340967 -7.125000 0.000000 0.000000 45.971157 50.497488 3.066496 -67.316878 44.721593 -36.503091 -0.711203 -0.295902 24.569088 7.125000 0.000000 0.000000 
11.688334 18.110046 -11.628607 -0.516342 3.098836 24.448015 -0.835058 -46.197971 -22.275203 -2.471532 5.738117 14.453689 -4.954383 25.465881 -19.035059 0.320000 3.636100 10.055200 19.727349 41.189369 -21.250953 2.579087 -7.011275 18.172460 2.561580 -32.830415 -39.745756 -3.532800 -11.511300 34.024500 1.452601 -0.438750 -3.921794 2.815337 0.098876 -10.794561 7.525763 1.321496 16.361371 3.511200 0.714000 8.161100 -29.738262 -49.579565 -5.953386 46.911072 -42.344217 -22.600935 -0.509036 0.590026 56.308627 -7.125000 0.000000 0.000000 48.349171 50.293471 5.033398 -70.327173 45.220422 -39.721942 -0.462668 -0.315720 24.615176 7.125000 0.000000 0.000000 
11.682047 18.118176 -11.614082 0.141748 3.038449 24.482070 -1.532774 -46.541441 -22.030620 -2.501619 5.647518 14.331781 -4.876122 25.366805 -19.360675 0.367700 3.894800 10.780900 18.938004 41.048849 -21.297662 2.563923 -7.053040 18.291273 2.242763 -32.229080 -40.266235 -3.798500 -11.887300 35.334600 1.405798 -0.642678 -3.942112 3.040356 0.006016 -10.580954 7.543008 1.293453 16.403355 3.520300 0.701000 8.201000 -29.880745 -49.644480 -6.141065 47.572839 -42.587386 -23.033557 -0.484782 0.582464 56.840862 -7.125000 0.000000 0.000000 50.826882 49.828399 7.264668 -73.464340 45.779098 -43.076123 -0.259154 -0.333718 24.615927 7.125000 0.000000 0.000000 
11.675435 18.117200 -11.600857 0.578758 2.985405 24.604651 -1.809219 -46.899312 -21.926108 -2.531892 5.527866 14.060703 -4.945245 25.676081 -19.372505 0.346600 3.782600 10.465800 18.307075 41.097367 -21.511525 2.539694 -7.143174 18.491824 1.846061 -31.547468 -40.951822 -4.062400 -12.243000 36.597200 1.385721 -0.797822 -3.975989 3.243356 -0.064322 -10.424826 7.517359 1.284207 16.342658 3.493100 0.696200 8.145500 -30.236994 -49.760400 -6.112645 48.006836 -42.678165 -23.303149 -0.467342 0.586463 57.013819 -7.125000 0.000000 0.000000 53.408308 49.023947 9.559158 -76.719517 46.398446 -46.565059 -0.117187 -0.353797 25.091486 7.125000 0.000000 0.000000 
11.668714 18.112647 -11.586874 0.598975 2.974670 24.610572 -1.695690 -47.139677 -21.672633 -2.552774 5.379033 13.722695 -5.075035 26.026407 -19.128514 0.291000 3.468800 9.586700 18.301145 41.220081 -21.577108 2.506045 -7.243598 18.750624 1.642000 -31.239231 -41.318387 -4.081500 -12.268100 36.687000 1.404546 -0.872155 -3.994599 3.372135 -0.106747 -10.313739 7.502372 1.283008 16.317090 3.478900 0.694700 8.125700 -30.599874 -49.829383 -5.925456 48.211346 -42.685148 -23.467915 -0.468909 0.595606 56.610337 -7.125000 0.000000 0.000000 55.913651 47.956986 11.753889 -79.753648 46.995707 -49.897214 0.014195 -0.406910 26.232864 7.125000 0.000000 0.000000 
11.663403 18.111564 -11.575601 0.525274 2.986678 24.569915 -1.640832 -47.090423 -21.428814 -2.575797 5.261043 13.473752 -5.058580 25.885840 -19.100041 0.342100 3.758600 10.398400 18.441068 41.285649 -21.554107 2.481965 -7.315954 18.962685 1.300014 -30.648960 -41.841163 -4.194300 -12.414600 37.214900 1.426848 -0.902650 -4.004807 3.450668 -0.130647 -10.231610 7.490673 1.258217 16.407173 3.477900 0.681900 8.225800 -30.971708 -49.922812 -5.839896 48.414064 -42.684324 -23.626720 -0.475442 0.602750 56.271678 -7.125000 0.000000 0.000000 58.153369 46.704717 13.591314 -82.344654 47.536413 -52.747419 0.090619 -0.471382 27.645024 7.125000 0.000000 0.000000 
11.655056 18.115032 -11.573324 0.821420 2.939345 24.737912 -1.835508 -47.020768 -21.640610 -2.598495 5.242886 13.385190 -5.003504 25.793764 -19.235647 0.387800 3.998800 11.073200 17.955701 41.167629 -21.871830 2.476774 -7.367647 19.027704 1.020401 -30.040207 -42.176451 -4.375000 -12.643300 38.047500 1.408823 -0.958745 -4.068881 3.583796 -0.137072 -10.302987 7.453316 1.154730 16.440108 3.433000 0.637500 8.275500 -31.460316 -49.995164 -5.509474 48.640155 -42.654745 -23.777751 -0.482850 0.612369 56.006401 -7.125000 0.000000 0.000000 60.396387 45.190160 15.132375 -84.483729 48.052540 -55.069436 0.115012 -0.528005 29.284131 7.125000 0.000000 0.000000 
11.646384 18.118176 -11.571698 1.186150 2.915515 24.943898 -2.041566 -47.032138 -21.952774 -2.607688 5.269288 13.389582 -4.958762 25.760521 -19.303350 0.397400 4.047600 11.210700 17.478439 40.797377 -22.280076 2.476484 -7.410350 19.029815 1.248129 -30.274413 -41.641903 -4.271900 -12.513700 37.574400 1.392675 -1.071487 -4.154918 3.750084 -0.152631 -10.481357 7.452510 1.101989 16.350221 3.404000 0.615900 8.192200 -32.043342 -49.984031 -5.192232 48.885324 -42.620403 -23.943326 -0.488833 0.624312 56.021704 -7.125000 0.000000 0.000000 62.669117 43.515183 16.778870 -85.778945 48.504566 -56.528502 0.126317 -0.613889 31.829113 7.125000 0.000000 0.000000 
11.644216 18.111347 -11.560967 1.018915 3.035005 24.853159 -1.908985 -47.053796 -21.805290 -2.595797 5.263409 13.401643 -4.993653 25.798812 -19.145680 0.359800 3.853500 10.664900 17.952319 40.499979 -22.152025 2.473783 -7.412374 19.068817 1.449189 -30.528965 -41.144429 -4.104700 -12.298400 36.795800 1.434129 -1.115018 -4.184679 3.801010 -0.162350 -10.607816 7.482327 1.117569 16.338321 3.426100 0.618300 8.164500 -32.696802 -50.002547 -5.060106 49.251842 -42.611443 -24.143724 -0.483028 0.635729 56.368694 -7.125000 0.000000 0.000000 64.806327 41.673631 19.165698 -87.436960 49.693363 -57.310926 0.541980 0.099169 34.911971 7.125000 0.000000 0.000000 
11.645409 18.101266 -11.549910 0.705505 3.191923 24.722677 -1.585496 -47.235240 -21.651597 -2.566797 5.279633 13.455735 -5.150174 26.212703 -18.802694 0.221300 3.028100 8.357100 18.586829 40.319667 -21.890600 2.482826 -7.380246 19.054860 1.477483 -30.562791 -41.027891 -4.068300 -12.250700 36.624800 1.470485 -1.093930 -4.160923 3.742649 -0.170011 -10.529530 7.562968 1.081197 16.385578 3.495100 0.598200 8.219000 -33.036164 -50.127856 -4.915522 49.397281 -42.589140 -24.188511 -0.532874 0.619391 56.275864 -7.125000 0.000000 0.000000 66.685340 40.062924 20.482520 -87.334588 49.987921 -57.335417 0.594948 0.079153 37.420071 7.125000 0.000000 0.000000 
11.644000 18.100832 -11.543840 0.456271 3.387542 24.677116 -1.383792 -47.088358 -21.728483 -2.532440 5.358720 13.608562 -5.241926 26.407348 -18.230211 0.106600 2.105100 5.796100 19.013258 40.278706 -21.708083 2.505853 -7.321523 18.943709 1.523999 -30.751633 -41.070605 -4.125300 -12.325300 36.892800 1.493236 -1.115427 -4.117149 3.640280 -0.205209 -10.357084 7.638022 1.043107 16.323020 3.541800 0.586800 8.214200 -33.159030 -50.302344 -4.914633 49.106924 -42.477444 -24.024791 -0.665677 0.575522 55.981202 -7.125000 0.000000 0.000000 68.455613 38.651200 21.742507 -86.655640 50.215680 -56.743859 0.633202 0.062784 38.767920 7.125000 0.000000 0.000000 
11.639772 18.101483 -11.539721 0.283988 3.580126 24.601699 -1.395482 -46.619384 -21.775632 -2.510140 5.424864 13.747553 -5.179615 26.068651 -17.684047 0.078300 1.805400 4.968200 19.363599 40.249143 -21.512826 2.521853 -7.274344 18.868932 1.540516 -30.869238 -41.144738 -4.166600 -12.378900 37.085900 1.527250 -1.213782 -4.105025 3.597601 -0.259751 -10.321313 7.615033 1.086470 16.290570 3.509500 0.615000 8.204500 -33.431441 -50.361110 -4.905208 48.902652 -42.274877 -23.796596 -0.549660 0.651638 55.992971 -7.125000 0.000000 0.000000 70.131816 37.092304 23.229714 -85.737679 50.419931 -55.898755 0.678629 0.056099 39.059407 7.125000 0.000000 0.000000 
11.636954 18.097905 -11.535927 0.309543 3.618605 24.578075 -1.453183 -46.490580 -21.796179 -2.508374 5.439569 13.788646 -5.093424 25.766189 -17.697838 0.107600 2.115300 5.824400 19.455023 40.071653 -21.492108 2.522022 -7.274702 18.876052 1.668306 -31.063902 -40.898591 -4.000600 -12.161200 36.304700 1.559477 -1.354213 -4.149241 3.686526 -0.307678 -10.429051 7.576125 1.183273 16.425808 3.473400 0.663500 8.294500 -33.782855 -50.209460 -4.780965 49.067053 -42.247355 -23.877994 -0.501135 0.676676 55.928132 -7.125000 0.000000 0.000000 71.740158 35.418316 24.828044 -84.547398 50.639001 -54.575302 0.556479 0.076582 38.401811 7.125000 0.000000 0.000000 
